<?xml version="1.0" encoding="utf-8" standalone="no"?>
<!DOCTYPE svg PUBLIC "-//W3C//DTD SVG 1.1//EN"
  "http://www.w3.org/Graphics/SVG/1.1/DTD/svg11.dtd">
<svg xmlns:xlink="http://www.w3.org/1999/xlink" width="216pt" height="216pt" viewBox="0 0 216 216" xmlns="http://www.w3.org/2000/svg" version="1.1">
 <metadata>
  <rdf:RDF xmlns:dc="http://purl.org/dc/elements/1.1/" xmlns:cc="http://creativecommons.org/ns#" xmlns:rdf="http://www.w3.org/1999/02/22-rdf-syntax-ns#">
   <cc:Work>
    <dc:type rdf:resource="http://purl.org/dc/dcmitype/StillImage"/>
    <dc:date>2023-10-17T11:45:07.972206</dc:date>
    <dc:format>image/svg+xml</dc:format>
    <dc:creator>
     <cc:Agent>
      <dc:title>Matplotlib v3.5.3, https://matplotlib.org/</dc:title>
     </cc:Agent>
    </dc:creator>
   </cc:Work>
  </rdf:RDF>
 </metadata>
 <defs>
  <style type="text/css">*{stroke-linejoin: round; stroke-linecap: butt}</style>
 </defs>
 <g id="figure_1">
  <g id="patch_1">
   <path d="M 0 216 
L 216 216 
L 216 0 
L 0 0 
z
" style="fill: #ffffff"/>
  </g>
  <g id="axes_1">
   <g id="patch_2">
    <path d="M 32.4 183.6 
L 194.4 183.6 
L 194.4 21.6 
L 32.4 21.6 
z
" style="fill: #ffffff"/>
   </g>
   <g id="line2d_1">
    <path d="M 122.045935 137.065837 
L 122.125556 147.730635 
L 126.752504 126.396897 
L 140.46761 117.112557 
L 142.227857 140.055079 
L 136.657741 142.954429 
L 141.135876 133.560404 
L 149.492511 131.108955 
L 151.4614 142.950075 
L 147.487284 144.932291 
L 149.774515 142.144707 
L 152.274443 138.970822 
L 153.535072 146.515169 
L 152.194763 148.891708 
L 152.636569 149.974213 
L 153.304981 149.235798 
L 154.186306 151.987329 
L 153.908707 153.300308 
L 151.990289 151.257751 
L 153.430672 153.33391 
L 154.152744 154.652627 
L 153.299118 155.467271 
L 152.653455 155.762791 
L 151.557637 153.030188 
L 152.803775 155.980852 
L 152.685113 157.745877 
L 151.578134 158.524439 
L 150.999283 157.320768 
L 149.806303 154.724016 
L 149.553033 155.158623 
L 149.445121 157.676043 
" clip-path="url(#p81092fd69f)" style="fill: none; stroke: #9467bd; stroke-width: 2; stroke-linecap: square"/>
   </g>
   <g id="line2d_2">
    <path d="M 121.179807 137.367135 
L 111.25169 128.900278 
L 107.628954 90.901753 
L 108.179679 62.748794 
L 103.966983 105.116442 
L 101.031703 126.108536 
L 97.761785 103.490279 
L 93.141465 89.111295 
L 86.757077 108.372773 
L 85.281214 121.726458 
L 80.98916 108.14564 
L 74.863817 102.418107 
L 67.089378 106.706113 
L 64.977466 111.055503 
L 60.953636 99.953508 
L 53.741708 91.706139 
L 47.571839 88.631073 
L 46.265776 87.911064 
L 45.155056 83.326724 
L 41.420697 72.590493 
L 39.796349 68.220791 
L 39.763636 63.769829 
L 40.283799 59.369073 
L 41.627118 57.054508 
L 41.818842 50.620071 
L 43.287244 47.673318 
L 44.428875 43.73387 
L 45.406026 39.221134 
L 47.850742 39.958716 
L 49.596687 38.667282 
L 51.277401 36.702863 
" clip-path="url(#p81092fd69f)" style="fill: none; stroke: #9467bd; stroke-width: 2; stroke-linecap: square"/>
   </g>
   <g id="line2d_3">
    <path d="M 128.278812 120.785783 
L 123.181151 149.819252 
L 122.918212 131.728947 
L 131.735783 123.504888 
L 131.100962 155.495348 
L 122.74239 161.946043 
L 121.953484 152.563455 
L 123.445053 151.60344 
L 120.838966 170.83159 
L 115.15402 172.248155 
L 112.635639 168.621684 
L 108.709926 163.996657 
L 104.689094 175.322402 
L 100.61685 176.236364 
L 97.044217 174.894981 
L 91.450238 171.653539 
L 86.307466 174.664469 
L 81.675165 172.85281 
L 75.730903 164.473096 
L 70.930065 163.249633 
L 64.883556 159.342968 
L 60.063789 154.421886 
L 55.834727 148.220461 
L 50.54113 136.993629 
L 48.171981 133.666537 
L 45.29282 126.65673 
L 43.599839 119.603385 
L 43.192488 113.171659 
L 42.413169 103.432596 
L 43.004525 96.923032 
L 44.476158 93.298049 
" clip-path="url(#p81092fd69f)" style="fill: none; stroke: #808080; stroke-width: 2; stroke-linecap: square"/>
   </g>
   <g id="line2d_4">
    <path d="M 128.472236 120.357469 
L 115.506639 125.599217 
L 113.284689 82.26014 
L 121.424169 28.963636 
L 126.955332 53.690787 
L 123.110585 92.186038 
L 122.258243 68.544528 
L 131.880147 32.621066 
L 139.904989 35.499427 
L 139.031803 64.575009 
L 138.878026 55.734076 
L 149.400275 37.911325 
L 158.203135 35.081272 
L 158.767191 51.97229 
L 158.319202 50.47463 
L 165.054786 40.217019 
L 172.718373 36.77625 
L 175.519672 44.46343 
L 176.164095 52.506631 
L 177.644455 47.672294 
L 181.141478 45.8207 
L 183.782043 48.132325 
L 184.560216 51.371568 
L 186.096223 56.170103 
L 185.318106 55.479461 
L 185.609785 56.744498 
L 185.934019 57.865841 
L 186.298536 59.504202 
L 187.036364 65.264552 
L 186.706709 68.81374 
L 184.643017 70.752179 
" clip-path="url(#p81092fd69f)" style="fill: none; stroke: #808080; stroke-width: 2; stroke-linecap: square"/>
   </g>
   <g id="PathCollection_1">
    <defs>
     <path id="m1aff43e1e1" d="M 0 3 
C 0.795609 3 1.55874 2.683901 2.12132 2.12132 
C 2.683901 1.55874 3 0.795609 3 0 
C 3 -0.795609 2.683901 -1.55874 2.12132 -2.12132 
C 1.55874 -2.683901 0.795609 -3 0 -3 
C -0.795609 -3 -1.55874 -2.683901 -2.12132 -2.12132 
C -2.683901 -1.55874 -3 -0.795609 -3 0 
C -3 0.795609 -2.683901 1.55874 -2.12132 2.12132 
C -1.55874 2.683901 -0.795609 3 0 3 
z
" style="stroke: #ff0000"/>
    </defs>
    <g clip-path="url(#p81092fd69f)">
     <use xlink:href="#m1aff43e1e1" x="149.445121" y="157.676043" style="fill: #ff0000; stroke: #ff0000"/>
    </g>
   </g>
   <g id="PathCollection_2">
    <defs>
     <path id="m03ed0e39c1" d="M 0 3 
C 0.795609 3 1.55874 2.683901 2.12132 2.12132 
C 2.683901 1.55874 3 0.795609 3 0 
C 3 -0.795609 2.683901 -1.55874 2.12132 -2.12132 
C 1.55874 -2.683901 0.795609 -3 0 -3 
C -0.795609 -3 -1.55874 -2.683901 -2.12132 -2.12132 
C -2.683901 -1.55874 -3 -0.795609 -3 0 
C -3 0.795609 -2.683901 1.55874 -2.12132 2.12132 
C -1.55874 2.683901 -0.795609 3 0 3 
z
" style="stroke: #0000ff"/>
    </defs>
    <g clip-path="url(#p81092fd69f)">
     <use xlink:href="#m03ed0e39c1" x="51.277401" y="36.702863" style="fill: #0000ff; stroke: #0000ff"/>
    </g>
   </g>
   <g id="PathCollection_3">
    <g clip-path="url(#p81092fd69f)">
     <use xlink:href="#m03ed0e39c1" x="44.476158" y="93.298049" style="fill: #0000ff; stroke: #0000ff"/>
    </g>
   </g>
   <g id="PathCollection_4">
    <g clip-path="url(#p81092fd69f)">
     <use xlink:href="#m1aff43e1e1" x="184.643017" y="70.752179" style="fill: #ff0000; stroke: #ff0000"/>
    </g>
   </g>
   <g id="PathCollection_5">
    <defs>
     <path id="m0cf25acdc3" d="M 0 -3 
L -0.673542 -0.927051 
L -2.85317 -0.927051 
L -1.089814 0.354102 
L -1.763356 2.427051 
L -0 1.145898 
L 1.763356 2.427051 
L 1.089814 0.354102 
L 2.85317 -0.927051 
L 0.673542 -0.927051 
z
" style="stroke: #ffa500"/>
    </defs>
    <g clip-path="url(#p81092fd69f)">
     <use xlink:href="#m0cf25acdc3" x="122.045935" y="137.065837" style="fill: #ffa500; stroke: #ffa500"/>
    </g>
   </g>
   <g id="PathCollection_6">
    <g clip-path="url(#p81092fd69f)">
     <use xlink:href="#m0cf25acdc3" x="121.179807" y="137.367135" style="fill: #ffa500; stroke: #ffa500"/>
    </g>
   </g>
   <g id="PathCollection_7">
    <g clip-path="url(#p81092fd69f)">
     <use xlink:href="#m0cf25acdc3" x="128.278812" y="120.785783" style="fill: #ffa500; stroke: #ffa500"/>
    </g>
   </g>
   <g id="PathCollection_8">
    <g clip-path="url(#p81092fd69f)">
     <use xlink:href="#m0cf25acdc3" x="128.472236" y="120.357469" style="fill: #ffa500; stroke: #ffa500"/>
    </g>
   </g>
   <g id="matplotlib.axis_1">
    <g id="text_1">
     <!-- integ-PC1 -->
     <g transform="translate(89.139844 195.198438)scale(0.1 -0.1)">
      <defs>
       <path id="DejaVuSans-69" d="M 603 3500 
L 1178 3500 
L 1178 0 
L 603 0 
L 603 3500 
z
M 603 4863 
L 1178 4863 
L 1178 4134 
L 603 4134 
L 603 4863 
z
" transform="scale(0.015625)"/>
       <path id="DejaVuSans-6e" d="M 3513 2113 
L 3513 0 
L 2938 0 
L 2938 2094 
Q 2938 2591 2744 2837 
Q 2550 3084 2163 3084 
Q 1697 3084 1428 2787 
Q 1159 2491 1159 1978 
L 1159 0 
L 581 0 
L 581 3500 
L 1159 3500 
L 1159 2956 
Q 1366 3272 1645 3428 
Q 1925 3584 2291 3584 
Q 2894 3584 3203 3211 
Q 3513 2838 3513 2113 
z
" transform="scale(0.015625)"/>
       <path id="DejaVuSans-74" d="M 1172 4494 
L 1172 3500 
L 2356 3500 
L 2356 3053 
L 1172 3053 
L 1172 1153 
Q 1172 725 1289 603 
Q 1406 481 1766 481 
L 2356 481 
L 2356 0 
L 1766 0 
Q 1100 0 847 248 
Q 594 497 594 1153 
L 594 3053 
L 172 3053 
L 172 3500 
L 594 3500 
L 594 4494 
L 1172 4494 
z
" transform="scale(0.015625)"/>
       <path id="DejaVuSans-65" d="M 3597 1894 
L 3597 1613 
L 953 1613 
Q 991 1019 1311 708 
Q 1631 397 2203 397 
Q 2534 397 2845 478 
Q 3156 559 3463 722 
L 3463 178 
Q 3153 47 2828 -22 
Q 2503 -91 2169 -91 
Q 1331 -91 842 396 
Q 353 884 353 1716 
Q 353 2575 817 3079 
Q 1281 3584 2069 3584 
Q 2775 3584 3186 3129 
Q 3597 2675 3597 1894 
z
M 3022 2063 
Q 3016 2534 2758 2815 
Q 2500 3097 2075 3097 
Q 1594 3097 1305 2825 
Q 1016 2553 972 2059 
L 3022 2063 
z
" transform="scale(0.015625)"/>
       <path id="DejaVuSans-67" d="M 2906 1791 
Q 2906 2416 2648 2759 
Q 2391 3103 1925 3103 
Q 1463 3103 1205 2759 
Q 947 2416 947 1791 
Q 947 1169 1205 825 
Q 1463 481 1925 481 
Q 2391 481 2648 825 
Q 2906 1169 2906 1791 
z
M 3481 434 
Q 3481 -459 3084 -895 
Q 2688 -1331 1869 -1331 
Q 1566 -1331 1297 -1286 
Q 1028 -1241 775 -1147 
L 775 -588 
Q 1028 -725 1275 -790 
Q 1522 -856 1778 -856 
Q 2344 -856 2625 -561 
Q 2906 -266 2906 331 
L 2906 616 
Q 2728 306 2450 153 
Q 2172 0 1784 0 
Q 1141 0 747 490 
Q 353 981 353 1791 
Q 353 2603 747 3093 
Q 1141 3584 1784 3584 
Q 2172 3584 2450 3431 
Q 2728 3278 2906 2969 
L 2906 3500 
L 3481 3500 
L 3481 434 
z
" transform="scale(0.015625)"/>
       <path id="DejaVuSans-2d" d="M 313 2009 
L 1997 2009 
L 1997 1497 
L 313 1497 
L 313 2009 
z
" transform="scale(0.015625)"/>
       <path id="DejaVuSans-50" d="M 1259 4147 
L 1259 2394 
L 2053 2394 
Q 2494 2394 2734 2622 
Q 2975 2850 2975 3272 
Q 2975 3691 2734 3919 
Q 2494 4147 2053 4147 
L 1259 4147 
z
M 628 4666 
L 2053 4666 
Q 2838 4666 3239 4311 
Q 3641 3956 3641 3272 
Q 3641 2581 3239 2228 
Q 2838 1875 2053 1875 
L 1259 1875 
L 1259 0 
L 628 0 
L 628 4666 
z
" transform="scale(0.015625)"/>
       <path id="DejaVuSans-43" d="M 4122 4306 
L 4122 3641 
Q 3803 3938 3442 4084 
Q 3081 4231 2675 4231 
Q 1875 4231 1450 3742 
Q 1025 3253 1025 2328 
Q 1025 1406 1450 917 
Q 1875 428 2675 428 
Q 3081 428 3442 575 
Q 3803 722 4122 1019 
L 4122 359 
Q 3791 134 3420 21 
Q 3050 -91 2638 -91 
Q 1578 -91 968 557 
Q 359 1206 359 2328 
Q 359 3453 968 4101 
Q 1578 4750 2638 4750 
Q 3056 4750 3426 4639 
Q 3797 4528 4122 4306 
z
" transform="scale(0.015625)"/>
       <path id="DejaVuSans-31" d="M 794 531 
L 1825 531 
L 1825 4091 
L 703 3866 
L 703 4441 
L 1819 4666 
L 2450 4666 
L 2450 531 
L 3481 531 
L 3481 0 
L 794 0 
L 794 531 
z
" transform="scale(0.015625)"/>
      </defs>
      <use xlink:href="#DejaVuSans-69"/>
      <use xlink:href="#DejaVuSans-6e" x="27.783203"/>
      <use xlink:href="#DejaVuSans-74" x="91.162109"/>
      <use xlink:href="#DejaVuSans-65" x="130.371094"/>
      <use xlink:href="#DejaVuSans-67" x="191.894531"/>
      <use xlink:href="#DejaVuSans-2d" x="255.371094"/>
      <use xlink:href="#DejaVuSans-50" x="291.455078"/>
      <use xlink:href="#DejaVuSans-43" x="351.757812"/>
      <use xlink:href="#DejaVuSans-31" x="421.582031"/>
     </g>
    </g>
   </g>
   <g id="matplotlib.axis_2">
    <g id="text_2">
     <!-- integ-PC2 -->
     <g transform="translate(26.320312 126.860156)rotate(-90)scale(0.1 -0.1)">
      <defs>
       <path id="DejaVuSans-32" d="M 1228 531 
L 3431 531 
L 3431 0 
L 469 0 
L 469 531 
Q 828 903 1448 1529 
Q 2069 2156 2228 2338 
Q 2531 2678 2651 2914 
Q 2772 3150 2772 3378 
Q 2772 3750 2511 3984 
Q 2250 4219 1831 4219 
Q 1534 4219 1204 4116 
Q 875 4013 500 3803 
L 500 4441 
Q 881 4594 1212 4672 
Q 1544 4750 1819 4750 
Q 2544 4750 2975 4387 
Q 3406 4025 3406 3419 
Q 3406 3131 3298 2873 
Q 3191 2616 2906 2266 
Q 2828 2175 2409 1742 
Q 1991 1309 1228 531 
z
" transform="scale(0.015625)"/>
      </defs>
      <use xlink:href="#DejaVuSans-69"/>
      <use xlink:href="#DejaVuSans-6e" x="27.783203"/>
      <use xlink:href="#DejaVuSans-74" x="91.162109"/>
      <use xlink:href="#DejaVuSans-65" x="130.371094"/>
      <use xlink:href="#DejaVuSans-67" x="191.894531"/>
      <use xlink:href="#DejaVuSans-2d" x="255.371094"/>
      <use xlink:href="#DejaVuSans-50" x="291.455078"/>
      <use xlink:href="#DejaVuSans-43" x="351.757812"/>
      <use xlink:href="#DejaVuSans-32" x="421.582031"/>
     </g>
    </g>
   </g>
   <g id="text_3">
    <!-- 1_32 -->
    <g transform="translate(107.378125 15.6)scale(0.05 -0.05)">
     <defs>
      <path id="DejaVuSans-5f" d="M 3263 -1063 
L 3263 -1509 
L -63 -1509 
L -63 -1063 
L 3263 -1063 
z
" transform="scale(0.015625)"/>
      <path id="DejaVuSans-33" d="M 2597 2516 
Q 3050 2419 3304 2112 
Q 3559 1806 3559 1356 
Q 3559 666 3084 287 
Q 2609 -91 1734 -91 
Q 1441 -91 1130 -33 
Q 819 25 488 141 
L 488 750 
Q 750 597 1062 519 
Q 1375 441 1716 441 
Q 2309 441 2620 675 
Q 2931 909 2931 1356 
Q 2931 1769 2642 2001 
Q 2353 2234 1838 2234 
L 1294 2234 
L 1294 2753 
L 1863 2753 
Q 2328 2753 2575 2939 
Q 2822 3125 2822 3475 
Q 2822 3834 2567 4026 
Q 2313 4219 1838 4219 
Q 1578 4219 1281 4162 
Q 984 4106 628 3988 
L 628 4550 
Q 988 4650 1302 4700 
Q 1616 4750 1894 4750 
Q 2613 4750 3031 4423 
Q 3450 4097 3450 3541 
Q 3450 3153 3228 2886 
Q 3006 2619 2597 2516 
z
" transform="scale(0.015625)"/>
     </defs>
     <use xlink:href="#DejaVuSans-31"/>
     <use xlink:href="#DejaVuSans-5f" x="63.623047"/>
     <use xlink:href="#DejaVuSans-33" x="113.623047"/>
     <use xlink:href="#DejaVuSans-32" x="177.246094"/>
    </g>
   </g>
  </g>
 </g>
 <defs>
  <clipPath id="p81092fd69f">
   <rect x="32.4" y="21.6" width="162" height="162"/>
  </clipPath>
 </defs>
</svg>
